<svg width="146" height="82" viewBox="0 0 146 82" xmlns="http://www.w3.org/2000/svg">
    <g>
        <path fill-rule="evenodd" clip-rule="evenodd"
            d="M7.99999 5.33333L7.99999 26.6667C7.99999 28.1394 9.1939 29.3333 10.6667 29.3333L21.3333 29.3333C22.8061 29.3333 24 28.1394 24 26.6667L24 5.33333C24 3.86057 22.8061 2.66667 21.3333 2.66667L10.6667 2.66667C9.1939 2.66667 7.99999 3.86057 7.99999 5.33333ZM5.33333 26.6667C5.33333 29.6122 7.72114 32 10.6667 32L21.3333 32C24.2788 32 26.6667 29.6122 26.6667 26.6667L26.6667 5.33333C26.6667 2.38781 24.2788 -1.78181e-06 21.3333 -1.65306e-06L10.6667 -1.1868e-06C7.72114 -1.05805e-06 5.33333 2.38781 5.33333 5.33333L5.33333 26.6667Z" />
        <path fill-rule="evenodd" clip-rule="evenodd"
            d="M16 24C17.4728 24 18.6667 22.8061 18.6667 21.3333C18.6667 19.8606 17.4728 18.6667 16 18.6667C14.5272 18.6667 13.3333 19.8606 13.3333 21.3333C13.3333 22.8061 14.5272 24 16 24ZM16 26.6667C18.9455 26.6667 21.3333 24.2789 21.3333 21.3333C21.3333 18.3878 18.9455 16 16 16C13.0545 16 10.6667 18.3878 10.6667 21.3333C10.6667 24.2789 13.0545 26.6667 16 26.6667Z" />
        <path fill-rule="evenodd" clip-rule="evenodd"
            d="M16 10.6666C16.7364 10.6666 17.3333 10.0697 17.3333 9.33331C17.3333 8.59693 16.7364 7.99998 16 7.99998C15.2636 7.99998 14.6667 8.59693 14.6667 9.33331C14.6667 10.0697 15.2636 10.6666 16 10.6666ZM16 13.3333C18.2091 13.3333 20 11.5425 20 9.33331C20 7.12417 18.2091 5.33331 16 5.33331C13.7909 5.33331 12 7.12417 12 9.33331C12 11.5425 13.7909 13.3333 16 13.3333Z" />

        <path
            d="M126 74H128.667V76.6667H131.333V74H134V76.6667H135.333C136.07 76.6667 136.667 77.2636 136.667 78C136.667 78.7364 136.07 79.3333 135.333 79.3333H124.667C123.93 79.3333 123.333 78.7364 123.333 78C123.333 77.2636 123.93 76.6667 124.667 76.6667H126V74Z" />
        <path fill-rule="evenodd" clip-rule="evenodd"
            d="M119.333 58L119.333 68.6667C119.333 70.1394 120.527 71.3333 122 71.3333L138 71.3333C139.473 71.3333 140.667 70.1394 140.667 68.6667L140.667 58C140.667 56.5272 139.473 55.3333 138 55.3333L122 55.3333C120.527 55.3333 119.333 56.5272 119.333 58ZM116.667 68.6667C116.667 71.6122 119.054 74 122 74L138 74C140.946 74 143.333 71.6122 143.333 68.6667L143.333 58C143.333 55.0545 140.946 52.6667 138 52.6667L122 52.6667C119.054 52.6667 116.667 55.0545 116.667 58L116.667 68.6667Z" />
        <path
            d="M123.333 58C122.597 58 122 58.597 122 59.3333C122 60.0697 122.597 60.6667 123.333 60.6667H132.667C133.403 60.6667 134 60.0697 134 59.3333C134 58.597 133.403 58 132.667 58H123.333Z" />
        <path
            d="M123.333 63.3333C122.597 63.3333 122 63.9303 122 64.6667C122 65.403 122.597 66 123.333 66H126C126.736 66 127.333 65.403 127.333 64.6667C127.333 63.9303 126.736 63.3333 126 63.3333H123.333Z" />
        <path
            d="M32 15C31.4477 15 31 15.4477 31 16C31 16.5523 31.4477 17 32 17V15ZM112 67C112.552 67 113 66.5523 113 66C113 65.4477 112.552 65 112 65V67ZM73 28.1951C73 28.7474 73.4477 29.1951 74 29.1951C74.5523 29.1951 75 28.7474 75 28.1951H73ZM75 59.9024C75 59.3502 74.5523 58.9024 74 58.9024C73.4477 58.9024 73 59.3502 73 59.9024H75ZM32 17H68V15H32V17ZM80 67H112V65H80V67ZM73 22V28.1951H75V22H73ZM73 59.9024V60H75V59.9024H73ZM80 65C77.2386 65 75 62.7614 75 60H73C73 63.866 76.134 67 80 67V65ZM68 17C70.7614 17 73 19.2386 73 22H75C75 18.134 71.866 15 68 15V17Z" />
        <path
            d="M65 53.3333C65.7364 53.3333 66.3333 52.7364 66.3333 52H63.6667C63.6667 52.7364 64.2636 53.3333 65 53.3333Z" />
        <path
            d="M81 53.3333C81.7364 53.3333 82.3333 52.7364 82.3333 52H79.6667C79.6667 52.7364 80.2636 53.3333 81 53.3333Z" />
        <path fill-rule="evenodd" clip-rule="evenodd"
            d="M82.3333 41.3334H63.6667C62.9303 41.3334 62.3333 41.9303 62.3333 42.6667V48C62.3333 48.7364 62.9303 49.3334 63.6667 49.3334H82.3333C83.0697 49.3334 83.6667 48.7364 83.6667 48V42.6667C83.6667 41.9303 83.0697 41.3334 82.3333 41.3334ZM63.6667 38.6667C61.4575 38.6667 59.6667 40.4575 59.6667 42.6667V48C59.6667 50.2092 61.4575 52 63.6667 52H82.3333C84.5425 52 86.3333 50.2092 86.3333 48V42.6667C86.3333 40.4575 84.5425 38.6667 82.3333 38.6667H63.6667Z" />
        <path
            d="M79.6667 26.6667C78.9303 26.6667 78.3333 27.2636 78.3333 28V38.6667H81V28C81 27.2636 80.403 26.6667 79.6667 26.6667Z" />
        <path
            d="M66.3333 32C65.597 32 65 32.597 65 33.3334V38.6667H67.6667V33.3334C67.6667 32.597 67.0697 32 66.3333 32Z" />
        <path
            d="M66.3333 44C65.597 44 65 44.597 65 45.3333C65 46.0697 65.597 46.6667 66.3333 46.6667C67.0697 46.6667 67.6667 46.0697 67.6667 45.3333C67.6667 44.597 67.0697 44 66.3333 44Z" />
        <path
            d="M71.6667 44C70.9303 44 70.3333 44.597 70.3333 45.3333C70.3333 46.0697 70.9303 46.6667 71.6667 46.6667H79.6667C80.403 46.6667 81 46.0697 81 45.3333C81 44.597 80.403 44 79.6667 44H71.6667Z" />

    </g>
</svg>