<svg width="124" height="14" viewBox="0 0 124 14" fill="none" xmlns="http://www.w3.org/2000/svg">
    <g>
        <path
            d="M2.61 4.81C2.79 4.216 3.078 3.676 3.456 3.208C3.816 2.74 4.284 2.344 4.824 2.056C5.364 1.768 5.994 1.606 6.714 1.606C7.038 1.606 7.362 1.642 7.704 1.714C8.028 1.786 8.352 1.912 8.676 2.074C8.982 2.254 9.288 2.47 9.558 2.74C9.828 3.028 10.062 3.37 10.26 3.766L11.538 2.938C11.142 2.11 10.53 1.444 9.72 0.922C8.892 0.417999 7.92 0.147999 6.786 0.147999C5.814 0.147999 4.968 0.346 4.212 0.705999C3.438 1.084 2.808 1.57 2.286 2.182C1.764 2.794 1.368 3.478 1.098 4.234C0.9 4.774 0.792 5.314 0.738 5.836H2.376C2.43 5.494 2.502 5.152 2.61 4.81ZM10.422 9.4C10.242 9.796 10.008 10.138 9.72 10.426C9.432 10.714 9.126 10.948 8.82 11.128C8.478 11.308 8.154 11.452 7.794 11.524C7.434 11.614 7.092 11.65 6.768 11.65C6.12 11.65 5.544 11.524 5.004 11.236C4.464 10.966 3.996 10.588 3.6 10.12C3.186 9.652 2.88 9.13 2.664 8.518C2.52 8.14 2.43 7.762 2.376 7.348H0.738C0.81 7.888 0.936 8.41 1.134 8.932C1.422 9.724 1.836 10.426 2.376 11.038C2.916 11.65 3.546 12.154 4.284 12.532C5.004 12.928 5.814 13.108 6.696 13.108C7.182 13.108 7.686 13.054 8.208 12.91C8.712 12.784 9.198 12.604 9.666 12.334C10.134 12.1 10.548 11.776 10.908 11.416C11.268 11.056 11.556 10.624 11.772 10.138L10.422 9.4ZM23.1809 7.312C23.1269 7.69 23.0549 8.068 22.9289 8.428C22.7309 9.04 22.4429 9.58 22.0649 10.048C21.6869 10.516 21.2189 10.912 20.6969 11.2C20.1389 11.488 19.5269 11.632 18.8609 11.632C18.1949 11.632 17.6009 11.506 17.0609 11.218C16.5209 10.948 16.0529 10.57 15.6749 10.102C15.2789 9.634 14.9909 9.112 14.7749 8.5C14.6489 8.122 14.5589 7.726 14.5049 7.312H12.8669C12.9209 7.888 13.0469 8.464 13.2629 9.004C13.5329 9.796 13.9469 10.48 14.4869 11.092C15.0089 11.704 15.6389 12.19 16.3769 12.55C17.1149 12.91 17.9429 13.09 18.8429 13.09C19.7069 13.09 20.4989 12.928 21.2369 12.568C21.9749 12.208 22.6049 11.74 23.1449 11.146C23.6849 10.552 24.0989 9.868 24.4049 9.076C24.6209 8.518 24.7649 7.924 24.8369 7.312H23.1809ZM14.7749 4.774C14.9729 4.18 15.2609 3.658 15.6389 3.172C16.0169 2.704 16.4849 2.326 17.0249 2.038C17.5649 1.75 18.1769 1.606 18.8609 1.606C19.4909 1.606 20.0849 1.75 20.6249 2.02C21.1649 2.308 21.6149 2.668 22.0109 3.136C22.4069 3.604 22.6949 4.126 22.9109 4.738C23.0189 5.062 23.1089 5.404 23.1629 5.728H24.8009C24.7289 5.242 24.6029 4.738 24.4409 4.27C24.1529 3.496 23.7389 2.812 23.2169 2.182C22.6769 1.57 22.0469 1.084 21.3269 0.705999C20.5889 0.327999 19.7609 0.129999 18.8789 0.129999C17.9969 0.129999 17.2049 0.309999 16.4669 0.669999C15.7289 1.03 15.0989 1.498 14.5589 2.092C14.0189 2.704 13.5869 3.388 13.2809 4.162C13.0829 4.684 12.9389 5.206 12.8849 5.728H14.5229C14.5769 5.422 14.6669 5.098 14.7749 4.774ZM27.1238 0.219999V13H28.7438V3.118L31.6058 8.23L32.4698 6.754L28.8338 0.219999H27.1238ZM38.1038 0.219999L33.4598 8.518L32.6138 9.994L33.0098 10.696H33.9278L38.1758 3.118V13H39.7958V0.219999H38.1038ZM42.8562 0.219999V13H44.4762V3.118L47.3382 8.23L48.2022 6.754L44.5662 0.219999H42.8562ZM53.8362 0.219999L49.1922 8.518L48.3462 9.994L48.7422 10.696H49.6602L53.9082 3.118V13H55.5282V0.219999H53.8362ZM60.8386 10.102C60.5506 9.652 60.3346 9.13 60.2086 8.536C60.0826 7.942 60.0286 7.33 60.0286 6.682V0.219999H58.4086V6.682C58.4086 7.51 58.4986 8.302 58.6786 9.076C58.8586 9.85 59.1646 10.534 59.5966 11.128C60.0286 11.722 60.5866 12.208 61.2886 12.55C61.7746 12.82 62.3686 12.982 63.0346 13.054V11.578C62.6386 11.506 62.2966 11.38 62.0086 11.218C61.5226 10.93 61.1266 10.57 60.8386 10.102ZM67.6786 0.219999V6.682C67.6786 7.312 67.6066 7.906 67.4986 8.5C67.3726 9.094 67.1566 9.616 66.8686 10.084C66.5806 10.552 66.1846 10.912 65.6986 11.2C65.4106 11.38 65.0686 11.488 64.6906 11.56V13.054C65.3206 12.982 65.8786 12.82 66.3646 12.586C67.0486 12.244 67.6246 11.776 68.0566 11.182C68.4886 10.606 68.7946 9.922 68.9926 9.148C69.1906 8.374 69.2986 7.546 69.2986 6.682V0.219999H67.6786ZM72.1765 13H73.7965V5.818L72.1765 3.712V13ZM81.3565 0.237999V10.174L73.4365 0.219999H72.1765V1.192L73.7965 3.244L81.6085 13H82.9765V0.237999H81.3565ZM86.028 13H87.648V0.219999H86.028V13ZM92.3238 0.237999H90.7038V6.934L92.3238 5.188V0.237999ZM95.5278 5.854L100.658 0.219999H98.9118L92.3238 7.294L90.7038 9.022V13H92.3238V9.094L94.5378 6.79L99.1818 13H100.946L95.5278 5.854ZM104.066 1.66H110.96V0.219999H102.446V4.18H104.066V1.66ZM102.446 11.56V13H111.122V11.56H102.446ZM104.066 7.15H110.06V5.8H102.446V9.94H104.066V7.15ZM112.048 0.219999L116.026 6.88L116.854 5.458L113.83 0.219999H112.048ZM121.606 0.219999L117.7 6.88L116.89 8.338V13H118.51V8.338L123.37 0.219999H121.606Z" />
    </g>
</svg>