<svg width="90" height="32" viewBox="0 0 90 32" fill="none" xmlns="http://www.w3.org/2000/svg">
    <g>
        <path
            d="M0.45 14.873C0.45 14.873 0 14.873 0 15.9998C0 17.1266 0.45 17.1266 0.45 17.1266H4.05C4.05 17.1266 4.5 17.1266 4.5 15.9998C4.5 14.873 4.05 14.873 4.05 14.873H0.45Z" />
        <path
            d="M43.1999 14.873C43.1999 14.873 42.7499 14.873 42.7499 15.9998C42.7499 17.1266 43.1999 17.1266 43.1999 17.1266H46.7999C46.7999 17.1266 47.2499 17.1266 47.2499 15.9998C47.2499 14.873 46.7999 14.873 46.7999 14.873H43.1999Z" />
        <path
            d="M7.42499 9.46484C6.29999 9.46484 6.29999 9.91555 6.29999 9.91555V22.0846C6.29999 22.0846 6.29999 22.5353 7.42499 22.5353C8.54999 22.5353 8.54999 22.0846 8.54999 22.0846V9.91555C8.54999 9.91555 8.54999 9.46484 7.42499 9.46484Z" />
        <path
            d="M39.8251 9.46484C38.7001 9.46484 38.7001 9.91555 38.7001 9.91555V22.0846C38.7001 22.0846 38.7001 22.5353 39.8251 22.5353C40.9501 22.5353 40.9501 22.0846 40.9501 22.0846V9.91555C40.9501 9.91555 40.9501 9.46484 39.8251 9.46484Z" />
        <path
            d="M23.625 0C22.5 0 22.5 1.10345 22.5 1.10345V30.8966C22.5 30.8966 22.5 32 23.625 32C24.75 32 24.75 30.8966 24.75 30.8966V1.10345C24.75 1.10345 24.75 0 23.625 0Z" />
        <path
            d="M18.225 4.05664C17.1 4.05664 17.1 4.83372 17.1 4.83372V25.8148C17.1 25.8148 17.1 26.5919 18.225 26.5919C19.35 26.5919 19.35 25.8148 19.35 25.8148V4.83372C19.35 4.83372 19.35 4.05664 18.225 4.05664Z" />
        <path
            d="M29.0251 4.05664C27.9001 4.05664 27.9001 4.89588 27.9001 4.89588V27.5554C27.9001 27.5554 27.9001 28.3947 29.0251 28.3947C30.1501 28.3947 30.1501 27.5554 30.1501 27.5554V4.89588C30.1501 4.89588 30.1501 4.05664 29.0251 4.05664Z" />
        <path
            d="M12.825 5.85938C11.7 5.85938 11.7 6.51212 11.7 6.51212V24.1362C11.7 24.1362 11.7 24.7889 12.825 24.7889C13.95 24.7889 13.95 24.1362 13.95 24.1362V6.51212C13.95 6.51212 13.95 5.85938 12.825 5.85938Z" />
        <path
            d="M34.425 4.95752C33.3 4.95752 33.3 5.67243 33.3 5.67243V24.975C33.3 24.975 33.3 25.6899 34.425 25.6899C35.55 25.6899 35.55 24.975 35.55 24.975V5.67243C35.55 5.67243 35.55 4.95752 34.425 4.95752Z" />
        <path
            d="M43.1999 14.873C43.1999 14.873 42.7499 14.873 42.7499 15.9998C42.7499 17.1266 43.1999 17.1266 43.1999 17.1266H46.7999C46.7999 17.1266 47.2499 17.1266 47.2499 15.9998C47.2499 14.873 46.7999 14.873 46.7999 14.873H43.1999Z" />
        <path
            d="M85.95 14.873C85.95 14.873 85.5 14.873 85.5 15.9998C85.5 17.1266 85.95 17.1266 85.95 17.1266H89.55C89.55 17.1266 90 17.1266 90 15.9998C90 14.873 89.55 14.873 89.55 14.873H85.95Z" />
        <path
            d="M50.175 9.46484C49.05 9.46484 49.05 9.91555 49.05 9.91555V22.0846C49.05 22.0846 49.05 22.5353 50.175 22.5353C51.3 22.5353 51.3 22.0846 51.3 22.0846V9.91555C51.3 9.91555 51.3 9.46484 50.175 9.46484Z" />
        <path
            d="M82.575 9.46484C81.45 9.46484 81.45 9.91555 81.45 9.91555V22.0846C81.45 22.0846 81.45 22.5353 82.575 22.5353C83.7 22.5353 83.7 22.0846 83.7 22.0846V9.91555C83.7 9.91555 83.7 9.46484 82.575 9.46484Z" />
        <path
            d="M66.375 9.91553C65.25 9.91553 65.25 10.4129 65.25 10.4129V23.8407C65.25 23.8407 65.25 24.3381 66.375 24.3381C67.5 24.3381 67.5 23.8407 67.5 23.8407V10.4129C67.5 10.4129 67.5 9.91553 66.375 9.91553Z" />
        <path
            d="M60.975 4.05664C59.85 4.05664 59.85 4.83372 59.85 4.83372V25.8148C59.85 25.8148 59.85 26.5919 60.975 26.5919C62.1 26.5919 62.1 25.8148 62.1 25.8148V4.83372C62.1 4.83372 62.1 4.05664 60.975 4.05664Z" />
        <path
            d="M71.775 4.05664C70.65 4.05664 70.65 4.89588 70.65 4.89588V27.5554C70.65 27.5554 70.65 28.3947 71.775 28.3947C72.9 28.3947 72.9 27.5554 72.9 27.5554V4.89588C72.9 4.89588 72.9 4.05664 71.775 4.05664Z" />
        <path
            d="M56.025 9.91553C54.9 9.91553 54.9 10.3041 54.9 10.3041V20.7946C54.9 20.7946 54.9 21.1831 56.025 21.1831C57.15 21.1831 57.15 20.7946 57.15 20.7946V10.3041C57.15 10.3041 57.15 9.91553 56.025 9.91553Z" />
        <path
            d="M77.175 4.95752C76.05 4.95752 76.05 5.67243 76.05 5.67243V24.975C76.05 24.975 76.05 25.6899 77.175 25.6899C78.3 25.6899 78.3 24.975 78.3 24.975V5.67243C78.3 5.67243 78.3 4.95752 77.175 4.95752Z" />
    </g>

</svg>